# xmcd
# 
# Track frame offsets:
#     150
#     3011
#     19617
#     36106
#     51573
#     67762
#     84446
#     100390
#     116144
#     136393
#     153718
#     172214
#     192382
# 
# Disc length: 2760
# 
# Revision: 8
# Processed by: cddbd v1.5.2PL0 Copyright (c) Steve Scherf et al.
# Submitted via: fre:ac v1.0.27
# 
DISCID=ad0ac60d
DTITLE=Puhdys - Es war schön
DYEAR=2012
DGENRE=Rock
TTITLE0=Schiffsouvertüre
TTITLE1=Unser Schiff
TTITLE2=Draußen warten die Sterne
TTITLE3=Es war schön
TTITLE4=Hoffnung
TTITLE5=Die Welt ist ein Wunder
TTITLE6=Wenn ein Mensch
TTITLE7=Für dich lebe ich
TTITLE8=Einfach leben
TTITLE9=Heut' ist wieder so ein Tag
TTITLE10=Wieder zu Hause
TTITLE11=Ein Lied, das nicht vergisst
TTITLE12=Aus der Tiefe des Herzens
EXTD=YEAR: 2012
EXTT0=
EXTT1=
EXTT2=
EXTT3=
EXTT4=
EXTT5=
EXTT6=
EXTT7=
EXTT8=
EXTT9=
EXTT10=
EXTT11=
EXTT12=
PLAYORDER=
